<svg width="409" height="450" viewBox="0 0 409 450" fill="none" xmlns="http://www.w3.org/2000/svg">
<g filter="url(#filter0_d_3901_55954)">
<rect x="156" y="12.5352" width="180" height="180" rx="15.4286" fill="white"/>
<path fill-rule="evenodd" clip-rule="evenodd" d="M275.587 103.314C277.283 103.722 279.047 103.925 280.811 103.925C282.541 103.925 284.136 103.688 285.662 103.213C287.121 102.772 288.376 102.161 289.428 101.313C290.48 100.499 291.294 99.481 291.905 98.3275C292.481 97.1741 292.787 95.8511 292.787 94.3923C292.787 92.6282 292.278 91.0338 291.226 89.6429C290.174 88.252 288.41 87.1664 285.968 86.3861L281.15 84.8596C279.352 84.2828 278.097 83.6383 277.419 82.9937C276.74 82.3491 276.401 81.535 276.401 80.5851C276.401 79.1942 276.944 78.2104 277.996 77.5658C279.047 76.9212 280.574 76.6159 282.507 76.6159C284.916 76.6159 287.087 77.0569 289.021 77.939C289.598 78.2104 290.039 78.3461 290.31 78.3461C290.819 78.3461 291.09 77.9729 291.09 77.2605V75.666C291.09 75.1911 290.989 74.8179 290.785 74.5465C290.581 74.2412 290.242 73.9698 289.767 73.6984C289.428 73.4949 288.953 73.2913 288.342 73.0878C287.732 72.8842 287.087 72.7146 286.409 72.545C285.696 72.4093 284.984 72.2736 284.204 72.1718C283.457 72.0701 282.677 72.0361 281.931 72.0361C280.438 72.0361 279.013 72.2058 277.656 72.6128C276.299 73.0199 275.146 73.5967 274.128 74.3769C273.11 75.1233 272.296 76.0731 271.686 77.1587C271.075 78.2443 270.77 79.4995 270.77 80.9243C270.77 82.6884 271.346 84.3507 272.466 85.8434C273.585 87.37 275.417 88.5234 277.894 89.3036L282.813 90.8302C284.475 91.373 285.629 91.9497 286.239 92.5943C286.85 93.2389 287.155 94.0191 287.155 94.969C287.155 96.3599 286.544 97.4455 285.391 98.1918C284.238 98.9382 282.575 99.3113 280.438 99.3113C279.081 99.3113 277.758 99.1756 276.401 98.9043C275.078 98.6329 273.823 98.2258 272.669 97.7169C272.549 97.6688 272.433 97.6208 272.325 97.5757C272.127 97.4936 271.953 97.4215 271.821 97.3777C271.618 97.3098 271.414 97.2759 271.211 97.2759C270.702 97.2759 270.43 97.6151 270.43 98.3275V100.058C270.43 100.363 270.498 100.702 270.634 101.008C270.77 101.313 271.143 101.652 271.686 101.957C272.568 102.466 273.891 102.907 275.587 103.314ZM224.123 97.209C223.886 96.4627 223.75 95.445 223.75 94.1898H223.682V83.1983C223.682 79.4666 222.732 76.6848 220.866 74.8529C218.967 73.021 216.015 72.105 211.978 72.105C210.112 72.105 208.348 72.3085 206.686 72.7496C205.024 73.1567 203.599 73.6655 202.412 74.2762C201.937 74.5136 201.631 74.7511 201.462 74.9886C201.292 75.226 201.224 75.6331 201.224 76.1759V77.8382C201.224 78.5506 201.462 78.8899 201.937 78.8899C202.072 78.8899 202.242 78.856 202.479 78.7881C202.717 78.7203 203.124 78.5846 203.667 78.3471C204.854 77.8721 206.075 77.499 207.331 77.1937C208.586 76.8883 209.807 76.7526 210.994 76.7526C213.607 76.7526 215.439 77.2615 216.524 78.3132C217.576 79.3648 218.119 81.1628 218.119 83.7411V86.2175C216.762 85.9122 215.472 85.6408 214.217 85.4712C212.962 85.3016 211.775 85.1998 210.621 85.1998C207.127 85.1998 204.379 86.0818 202.31 87.8459C200.24 89.61 199.223 91.9508 199.223 94.8343C199.223 97.5483 200.071 99.7195 201.733 101.348C203.395 102.976 205.668 103.79 208.518 103.79C212.521 103.79 215.846 102.23 218.492 99.1088C218.865 99.8891 219.204 100.534 219.543 101.11C219.883 101.653 220.29 102.196 220.765 102.705C221.104 103.01 221.443 103.18 221.782 103.18C222.054 103.18 222.359 103.078 222.664 102.874L224.802 101.45C225.243 101.11 225.446 100.771 225.446 100.432C225.446 100.194 225.378 99.923 225.209 99.6516C224.734 98.7696 224.395 97.9554 224.123 97.209ZM213.457 98.7343C212.235 99.1414 211.082 99.3449 209.962 99.3449C208.402 99.3449 207.215 98.9379 206.4 98.0897C205.552 97.2756 205.145 96.0882 205.145 94.4938C205.145 92.7975 205.688 91.5084 206.807 90.5925C207.927 89.6765 209.589 89.2355 211.862 89.2355C212.914 89.2355 213.965 89.3033 215.051 89.439C216.137 89.5747 217.188 89.7783 218.172 90.0157V91.4406C218.172 92.594 218.036 93.5778 217.833 94.392C217.629 95.2062 217.222 95.9186 216.679 96.5632C215.763 97.5809 214.678 98.3272 213.457 98.7343ZM237.212 103.009C236.601 103.009 236.194 102.908 235.923 102.67C235.651 102.467 235.414 101.992 235.21 101.347L227.238 75.1236C227.034 74.4451 226.933 74.0041 226.933 73.7666C226.933 73.2238 227.204 72.9185 227.747 72.9185H231.071C231.716 72.9185 232.157 73.0203 232.395 73.2577C232.666 73.4613 232.869 73.9362 233.073 74.5808L238.772 97.0387L244.065 74.5808C244.234 73.9023 244.438 73.4613 244.709 73.2577C244.98 73.0542 245.455 72.9185 246.066 72.9185H248.78C249.425 72.9185 249.866 73.0203 250.137 73.2577C250.408 73.4613 250.646 73.9362 250.782 74.5808L256.142 97.3101L262.011 74.5808C262.214 73.9023 262.452 73.4613 262.689 73.2577C262.96 73.0542 263.401 72.9185 264.012 72.9185H267.167C267.71 72.9185 268.015 73.1899 268.015 73.7666C268.015 73.9115 267.99 74.0563 267.962 74.2224L267.947 74.3094C267.913 74.5129 267.846 74.7843 267.71 75.1575L259.534 101.381C259.331 102.06 259.093 102.501 258.822 102.704C258.55 102.908 258.109 103.043 257.533 103.043H254.615C253.97 103.043 253.529 102.942 253.258 102.704C252.987 102.467 252.749 102.026 252.613 101.347L247.355 79.4659L242.131 101.313C241.961 101.992 241.758 102.433 241.486 102.67C241.215 102.908 240.74 103.009 240.129 103.009H237.212Z" fill="#252F3E"/>
<path fill-rule="evenodd" clip-rule="evenodd" d="M287.214 120.414C276.053 128.658 259.837 133.034 245.895 133.034C226.354 133.034 208.747 125.808 195.449 113.799C194.397 112.849 195.347 111.56 196.602 112.306C210.986 120.652 228.729 125.706 247.082 125.706C259.464 125.706 273.068 123.128 285.586 117.836C287.452 116.988 289.046 119.057 287.214 120.414Z" fill="#FF9900"/>
<path fill-rule="evenodd" clip-rule="evenodd" d="M291.868 115.12C290.443 113.288 282.437 114.238 278.807 114.679C277.722 114.815 277.552 113.865 278.536 113.152C284.914 108.674 295.396 109.963 296.618 111.456C297.839 112.983 296.278 123.465 290.308 128.486C289.392 129.266 288.51 128.859 288.917 127.842C290.274 124.483 293.293 116.918 291.868 115.12Z" fill="#FF9900"/>
</g>
<g filter="url(#filter1_d_3901_55954)">
<rect x="233" y="249.535" width="140" height="140" rx="12" fill="white"/>
<path d="M315.521 341.205L307.191 355.536H285.378C283.433 355.536 281.636 354.505 280.668 352.835L263.022 322.381C262.063 320.724 262.063 318.69 263.022 317.034L269.737 305.448L278.026 319.707L290.522 341.205H315.521V341.205Z" fill="#F8BB16"/>
<path d="M342.988 322.04L325.611 352.807C324.657 354.494 322.887 355.535 320.972 355.535H307.697L315.9 341.057L328.213 319.338L315.9 297.621H332.245L342.988 316.638C343.934 318.311 343.934 320.366 342.988 322.04" fill="#EA4334"/>
<path d="M332.736 297.935H290.989L278.446 319.535L270.127 305.207L281.098 286.248C282.07 284.569 283.873 283.535 285.826 283.535H321.248C323.2 283.535 325.003 284.569 325.975 286.248L332.736 297.935Z" fill="#0074BC"/>
<path d="M315.519 297.621L328.041 319.534L315.519 341.448H290.478L277.953 319.534L290.473 297.621H315.519Z" fill="#E2E3E4"/>
<path d="M302.995 308.579C309.047 308.579 313.952 313.485 313.952 319.536C313.952 325.587 309.047 330.492 302.995 330.492C296.944 330.492 292.039 325.587 292.039 319.536C292.039 313.484 296.944 308.579 302.995 308.579" fill="white"/>
</g>
<g filter="url(#filter2_d_3901_55954)">
<rect x="36" y="149.535" width="140" height="140" rx="12" fill="white"/>
<path fill-rule="evenodd" clip-rule="evenodd" d="M71.3257 227.104C64.8323 238.357 59.5195 247.58 59.5195 247.599C59.5195 247.618 64.3211 247.627 70.1897 247.62L80.8598 247.606L95.5334 216.136C103.604 198.827 110.327 184.406 110.473 184.091C110.62 183.775 110.72 183.524 110.695 183.534C110.67 183.543 104.458 188.747 96.8906 195.098L83.1319 206.644L71.3257 227.104ZM124.448 247.812C124.335 247.836 114.471 249.582 102.528 251.691L80.814 255.527L116.647 255.532L152.48 255.537L152.334 255.28C152.253 255.139 143.561 240.073 133.018 221.799C121.757 202.282 113.834 188.603 113.812 188.641C113.746 188.755 102.104 220.816 102.104 220.882C102.104 220.917 107.178 226.981 113.379 234.357L124.654 247.768L124.448 247.812Z" fill="#0089D6"/>
</g>
<defs>
<filter id="filter0_d_3901_55954" x="120" y="0.535156" width="252" height="252" filterUnits="userSpaceOnUse" color-interpolation-filters="sRGB">
<feFlood flood-opacity="0" result="BackgroundImageFix"/>
<feColorMatrix in="SourceAlpha" type="matrix" values="0 0 0 0 0 0 0 0 0 0 0 0 0 0 0 0 0 0 127 0" result="hardAlpha"/>
<feMorphology radius="12" operator="erode" in="SourceAlpha" result="effect1_dropShadow_3901_55954"/>
<feOffset dy="24"/>
<feGaussianBlur stdDeviation="24"/>
<feColorMatrix type="matrix" values="0 0 0 0 0.0625882 0 0 0 0 0.0926346 0 0 0 0 0.15702 0 0 0 0.24 0"/>
<feBlend mode="multiply" in2="BackgroundImageFix" result="effect1_dropShadow_3901_55954"/>
<feBlend mode="normal" in="SourceGraphic" in2="effect1_dropShadow_3901_55954" result="shape"/>
</filter>
<filter id="filter1_d_3901_55954" x="197" y="237.535" width="212" height="212" filterUnits="userSpaceOnUse" color-interpolation-filters="sRGB">
<feFlood flood-opacity="0" result="BackgroundImageFix"/>
<feColorMatrix in="SourceAlpha" type="matrix" values="0 0 0 0 0 0 0 0 0 0 0 0 0 0 0 0 0 0 127 0" result="hardAlpha"/>
<feMorphology radius="12" operator="erode" in="SourceAlpha" result="effect1_dropShadow_3901_55954"/>
<feOffset dy="24"/>
<feGaussianBlur stdDeviation="24"/>
<feColorMatrix type="matrix" values="0 0 0 0 0.0625882 0 0 0 0 0.0926346 0 0 0 0 0.15702 0 0 0 0.24 0"/>
<feBlend mode="multiply" in2="BackgroundImageFix" result="effect1_dropShadow_3901_55954"/>
<feBlend mode="normal" in="SourceGraphic" in2="effect1_dropShadow_3901_55954" result="shape"/>
</filter>
<filter id="filter2_d_3901_55954" x="0" y="137.535" width="212" height="212" filterUnits="userSpaceOnUse" color-interpolation-filters="sRGB">
<feFlood flood-opacity="0" result="BackgroundImageFix"/>
<feColorMatrix in="SourceAlpha" type="matrix" values="0 0 0 0 0 0 0 0 0 0 0 0 0 0 0 0 0 0 127 0" result="hardAlpha"/>
<feMorphology radius="12" operator="erode" in="SourceAlpha" result="effect1_dropShadow_3901_55954"/>
<feOffset dy="24"/>
<feGaussianBlur stdDeviation="24"/>
<feColorMatrix type="matrix" values="0 0 0 0 0.0625882 0 0 0 0 0.0926346 0 0 0 0 0.15702 0 0 0 0.24 0"/>
<feBlend mode="multiply" in2="BackgroundImageFix" result="effect1_dropShadow_3901_55954"/>
<feBlend mode="normal" in="SourceGraphic" in2="effect1_dropShadow_3901_55954" result="shape"/>
</filter>
</defs>
</svg>
